<svg width="40" height="45" viewBox="0 0 40 45" fill="none" xmlns="http://www.w3.org/2000/svg">
<path d="M31.4286 28.125C29.41 28.125 27.5547 28.8122 26.0902 29.9615L16.9396 24.3317C17.2106 23.1251 17.2106 21.8748 16.9396 20.6682L26.0902 15.0384C27.5547 16.1878 29.41 16.875 31.4286 16.875C36.1624 16.875 40 13.0974 40 8.4375C40 3.77763 36.1624 0 31.4286 0C26.6947 0 22.8571 3.77763 22.8571 8.4375C22.8571 9.06662 22.9277 9.67939 23.0604 10.2692L13.9098 15.899C12.4453 14.7497 10.59 14.0625 8.57143 14.0625C3.83759 14.0625 0 17.8401 0 22.5C0 27.1599 3.83759 30.9375 8.57143 30.9375C10.59 30.9375 12.4453 30.2503 13.9098 29.101L23.0604 34.7308C22.9251 35.3322 22.857 35.9465 22.8571 36.5625C22.8571 41.2224 26.6947 45 31.4286 45C36.1624 45 40 41.2224 40 36.5625C40 31.9026 36.1624 28.125 31.4286 28.125Z" fill="#333333"/>
<circle cx="8.5" cy="22.5" r="4.5" fill="#E8F6F3"/>
<circle cx="31.5" cy="8.5" r="4.5" fill="#E8F6F3"/>
<circle cx="31.5" cy="36.5" r="4.5" fill="#E8F6F3"/>
</svg>
